<svg width="22" height="22" fill="none" xmlns="http://www.w3.org/2000/svg"><path d="M2.94 8.25a.876.876 0 00-.877.868c-.001.08.01.16.034.236l2.221 7.834a1.738 1.738 0 001.68 1.267h10.004a1.757 1.757 0 001.688-1.267l2.222-7.834.026-.236a.876.876 0 00-.877-.868H2.939zm8.306 6.878a1.808 1.808 0 111.817-1.808 1.816 1.816 0 01-1.817 1.808v0z" stroke="#101223" stroke-width="1.5" stroke-linejoin="round"/><path d="M6.875 8.25L11 2.75l4.125 5.5" stroke="#101223" stroke-width="1.5" stroke-linejoin="round"/></svg>