<svg width="22" height="22" viewBox="0 0 22 22" fill="none" xmlns="http://www.w3.org/2000/svg">
<path d="M2.93912 8.25C2.70805 8.24976 2.48625 8.34086 2.32206 8.50344C2.15787 8.66603 2.06459 8.88691 2.06255 9.11797C2.06162 9.19805 2.07321 9.27779 2.09693 9.3543L4.31841 17.1875C4.42137 17.5534 4.64142 17.8755 4.94485 18.1044C5.24828 18.3333 5.61838 18.4565 5.99849 18.4551H16.0016C16.3825 18.4554 16.7531 18.3319 17.0577 18.1033C17.3622 17.8747 17.5843 17.5533 17.6903 17.1875L19.9118 9.3543L19.9376 9.11797C19.9355 8.88691 19.8422 8.66603 19.678 8.50344C19.5138 8.34086 19.2921 8.24976 19.061 8.25H2.93912ZM11.2458 15.128C10.8887 15.1262 10.5401 15.0187 10.244 14.819C9.94792 14.6193 9.71763 14.3363 9.58219 14.0058C9.44675 13.6754 9.41224 13.3122 9.483 12.9621C9.55377 12.6121 9.72664 12.2908 9.97981 12.0389C10.233 11.787 10.5551 11.6157 10.9055 11.5467C11.2559 11.4777 11.6189 11.514 11.9487 11.6511C12.2785 11.7882 12.5603 12.0199 12.7585 12.3169C12.9568 12.614 13.0625 12.9632 13.0626 13.3203C13.0603 13.8006 12.8679 14.2604 12.5274 14.5992C12.1869 14.938 11.7261 15.1281 11.2458 15.128V15.128Z" stroke="#101223" stroke-width="1.5" stroke-linejoin="round"/>
<path d="M6.875 8.25L11 2.75L15.125 8.25" stroke="#101223" stroke-width="1.5" stroke-linejoin="round"/>
</svg>
