<svg width="15" height="15" viewBox="0 0 15 15" fill="none" xmlns="http://www.w3.org/2000/svg">
<g clip-path="url(#clip0)">
<path d="M14.9848 4.41004C14.9497 3.61303 14.8208 3.0651 14.6362 2.5903C14.4457 2.08632 14.1527 1.63511 13.7688 1.26001C13.3937 0.879078 12.9395 0.583076 12.4414 0.395585C11.9638 0.210956 11.4187 0.0820702 10.6217 0.0469299C9.81878 0.00881367 9.56387 0 7.52734 0C5.49081 0 5.2359 0.00881367 4.43592 0.0439539C3.63891 0.0790941 3.09097 0.208094 2.6163 0.392609C2.1122 0.583076 1.66099 0.876102 1.28589 1.26001C0.904956 1.63511 0.609069 2.0893 0.421464 2.58744C0.236835 3.0651 0.107949 3.61006 0.0728088 4.40706C0.0346926 5.21002 0.0258789 5.46493 0.0258789 7.50147C0.0258789 9.538 0.0346926 9.79291 0.0698328 10.5929C0.104973 11.3899 0.233973 11.9378 0.418602 12.4126C0.609069 12.9166 0.904956 13.3678 1.28589 13.7429C1.66099 14.1239 2.11518 14.4199 2.61332 14.6073C3.09097 14.792 3.63593 14.9209 4.43305 14.956C5.23292 14.9913 5.48795 15 7.52448 15C9.56101 15 9.81592 14.9913 10.6159 14.956C11.4129 14.9209 11.9608 14.792 12.4355 14.6073C13.4436 14.2176 14.2406 13.4206 14.6304 12.4126C14.8149 11.935 14.9439 11.3899 14.979 10.5929C15.0141 9.79291 15.023 9.538 15.023 7.50147C15.023 5.46493 15.02 5.21002 14.9848 4.41004ZM13.6341 10.5343C13.6018 11.2668 13.4787 11.6624 13.3762 11.9262C13.1241 12.5796 12.6055 13.0983 11.952 13.3503C11.6883 13.4529 11.2899 13.5759 10.5602 13.6081C9.76899 13.6433 9.5317 13.652 7.53031 13.652C5.52893 13.652 5.28867 13.6433 4.50036 13.6081C3.7678 13.5759 3.37221 13.4529 3.10849 13.3503C2.7833 13.2301 2.4873 13.0397 2.24704 12.7906C1.99797 12.5473 1.8075 12.2543 1.68731 11.9291C1.58475 11.6654 1.46171 11.2668 1.42954 10.5373C1.39429 9.74609 1.38559 9.50869 1.38559 7.5073C1.38559 5.50591 1.39429 5.26565 1.42954 4.47746C1.46171 3.74489 1.58475 3.34931 1.68731 3.08559C1.8075 2.76028 1.99797 2.46439 2.25001 2.22402C2.49313 1.97495 2.78616 1.78448 3.11146 1.66441C3.37519 1.56185 3.77375 1.4388 4.50334 1.40652C5.29451 1.37138 5.5319 1.36257 7.53318 1.36257C9.53754 1.36257 9.77482 1.37138 10.5631 1.40652C11.2957 1.4388 11.6913 1.56185 11.955 1.66441C12.2802 1.78448 12.5762 1.97495 12.8165 2.22402C13.0655 2.46726 13.256 2.76028 13.3762 3.08559C13.4787 3.34931 13.6018 3.74776 13.6341 4.47746C13.6692 5.26863 13.678 5.50591 13.678 7.5073C13.678 9.50869 13.6692 9.74311 13.6341 10.5343Z" fill="black" fill-opacity="0.4"/>
<path d="M7.52736 3.64807C5.40006 3.64807 3.67407 5.37395 3.67407 7.50136C3.67407 9.62878 5.40006 11.3547 7.52736 11.3547C9.65478 11.3547 11.3807 9.62878 11.3807 7.50136C11.3807 5.37395 9.65478 3.64807 7.52736 3.64807ZM7.52736 10.0009C6.14728 10.0009 5.02783 8.88156 5.02783 7.50136C5.02783 6.12116 6.14728 5.00183 7.52736 5.00183C8.90756 5.00183 10.0269 6.12116 10.0269 7.50136C10.0269 8.88156 8.90756 10.0009 7.52736 10.0009Z" fill="black" fill-opacity="0.4"/>
<path d="M12.433 3.49582C12.433 3.99259 12.0302 4.39539 11.5334 4.39539C11.0366 4.39539 10.6338 3.99259 10.6338 3.49582C10.6338 2.99893 11.0366 2.59625 11.5334 2.59625C12.0302 2.59625 12.433 2.99893 12.433 3.49582Z" fill="black" fill-opacity="0.4"/>
</g>
<defs>
<clipPath id="clip0">
<rect width="15" height="15" fill="white"/>
</clipPath>
</defs>
</svg>
