<svg width="15" height="15" viewBox="0 0 15 15" fill="none" xmlns="http://www.w3.org/2000/svg">
<g clip-path="url(#clip0)">
<path d="M14.9968 15V14.9994H15.0005V9.49811C15.0005 6.80686 14.4212 4.73373 11.2749 4.73373C9.7624 4.73373 8.7474 5.56373 8.33303 6.35061H8.28928V4.98498H5.30615V14.9994H8.4124V10.0406C8.4124 8.73499 8.6599 7.47248 10.2768 7.47248C11.8699 7.47248 11.8937 8.96248 11.8937 10.1244V15H14.9968Z" fill="#101223"/>
<path d="M0.246826 4.98572H3.35683V15.0001H0.246826V4.98572Z" fill="#101223"/>
<path d="M1.80125 0C0.806875 0 0 0.806875 0 1.80125C0 2.79562 0.806875 3.61937 1.80125 3.61937C2.79562 3.61937 3.6025 2.79562 3.6025 1.80125C3.60188 0.806875 2.795 0 1.80125 0V0Z" fill="#101223"/>
</g>
<defs>
<clipPath id="clip0">
<rect width="15" height="15" fill="white"/>
</clipPath>
</defs>
</svg>
