<svg width="15" height="15" viewBox="0 0 15 15" fill="none" xmlns="http://www.w3.org/2000/svg">
<path d="M14.2342 3.98521C14.0721 3.38276 13.5971 2.90786 12.9948 2.74564C11.8943 2.44455 7.4925 2.44455 7.4925 2.44455C7.4925 2.44455 3.09085 2.44455 1.99041 2.73423C1.39964 2.89628 0.913067 3.38285 0.751018 3.98521C0.461426 5.08556 0.461426 7.36754 0.461426 7.36754C0.461426 7.36754 0.461426 9.66102 0.751018 10.7499C0.913238 11.3522 1.38805 11.8271 1.9905 11.9893C3.10244 12.2905 7.49267 12.2905 7.49267 12.2905C7.49267 12.2905 11.8943 12.2905 12.9948 12.0009C13.5972 11.8387 14.0721 11.3638 14.2343 10.7615C14.5238 9.66102 14.5238 7.37913 14.5238 7.37913C14.5238 7.37913 14.5354 5.08556 14.2342 3.98521ZM6.09106 9.47571V5.25937L9.75139 7.36754L6.09106 9.47571Z" fill="black" fill-opacity="0.4"/>
</svg>
